<?xml version="1.0" encoding="UTF-8"?>
<svg width="20px" height="20px" viewBox="0 0 20 20" version="1.1" xmlns="http://www.w3.org/2000/svg">
    <g stroke="none" stroke-width="1" fill="none" fill-rule="evenodd">
        <path d="M10,2 C5.58172,2 2,5.58172 2,10 C2,13.5171 4.29,16.5171 7.47,17.5171 C7.87,17.5871 8,17.3171 8,17.0871 L8,15.5871 C5.73,16.0871 5.14,14.5871 5.14,14.5871 C4.68,13.5871 4.03,13.3171 4.03,13.3171 C3.17,12.7871 4.09,12.7871 4.09,12.7871 C5.01,12.8571 5.57,13.6871 5.57,13.6871 C6.41,14.9871 7.73,14.6171 8.04,14.3871 C8.11,13.8571 8.37,13.4871 8.66,13.2871 C6.82,13.0871 4.89,12.3871 4.89,9.28712 C4.89,8.28712 5.29,7.48712 5.59,6.88712 C5.52,6.68712 5.12,5.68712 5.69,4.48712 C5.69,4.48712 6.48,4.28712 7.99,5.28712 C8.63,5.08712 9.32,4.98712 10,4.98712 C10.68,4.98712 11.37,5.08712 12.01,5.28712 C13.52,4.28712 14.31,4.48712 14.31,4.48712 C14.88,5.68712 14.48,6.68712 14.41,6.88712 C14.71,7.48712 15.11,8.28712 15.11,9.28712 C15.11,12.3871 13.18,13.0871 11.34,13.2871 C11.63,13.4871 11.89,13.8871 11.89,14.4871 L11.89,17.0871 C11.89,17.3171 12.02,17.5871 12.42,17.5171 C15.6,16.5171 17.89,13.5171 17.89,10 C17.89,5.58172 14.4183,2 10,2 Z" stroke="currentColor" stroke-width="1.5"/>
    </g>
</svg> 